<svg width="1000" height="1000" viewBox="0 0 1000 1000" xmlns="http://www.w3.org/2000/svg">
  <defs>
    <linearGradient id="grad1" x1="0%" y1="0%" x2="100%" y2="100%">
      <stop offset="0%" stop-color="#2a2a72" stop-opacity="0.8"/>
      <stop offset="100%" stop-color="#009ffd" stop-opacity="0.8"/>
    </linearGradient>
    <linearGradient id="grad2" x1="0%" y1="0%" x2="100%" y2="0%">
      <stop offset="0%" stop-color="#ffffff" stop-opacity="0.05"/>
      <stop offset="100%" stop-color="#ffffff" stop-opacity="0.2"/>
    </linearGradient>
  </defs>
  
  <!-- Background -->
  <rect width="100%" height="100%" fill="url(#grad1)"/>
  
  <!-- Abstract Medical Symbols -->
  <g opacity="0.1" fill="#ffffff">
    <!-- Heartbeat Line -->
    <path d="M0,500 Q250,300 300,500 T600,500 T900,500 T1000,500" stroke="#ffffff" stroke-width="8" fill="none"/>
    
    <!-- Medical Cross -->
    <rect x="700" y="200" width="80" height="200" rx="10" ry="10"/>
    <rect x="640" y="260" width="200" height="80" rx="10" ry="10"/>
    
    <!-- Stethoscope -->
    <circle cx="200" cy="200" r="50"/>
    <path d="M200,250 C200,300 250,350 300,350 L350,350 C400,350 400,400 350,400 L300,400" stroke="#ffffff" stroke-width="15" fill="none"/>
    <path d="M200,250 L200,350" stroke="#ffffff" stroke-width="15" fill="none"/>
    
    <!-- DNA Helix -->
    <path d="M800,600 C900,650 700,700 800,750 C900,800 700,850 800,900" stroke="#ffffff" stroke-width="10" fill="none"/>
    <path d="M700,600 C600,650 800,700 700,750 C600,800 800,850 700,900" stroke="#ffffff" stroke-width="10" fill="none"/>
    
    <!-- Pills -->
    <ellipse cx="300" cy="700" rx="60" ry="30"/>
    <ellipse cx="400" cy="700" rx="60" ry="30"/>
    
    <!-- Medical Snake Symbol (Caduceus) -->
    <path d="M500,600 L500,900" stroke="#ffffff" stroke-width="10" fill="none"/>
    <path d="M460,650 Q500,700 540,650 Q580,600 460,600 Q420,650 460,650" fill="#ffffff"/>
    <path d="M460,750 Q500,800 540,750 Q580,700 460,700 Q420,750 460,750" fill="#ffffff"/>
  </g>
  
  <!-- Decorative Circles -->
  <circle cx="100" cy="100" r="50" fill="url(#grad2)" opacity="0.3"/>
  <circle cx="900" cy="300" r="70" fill="url(#grad2)" opacity="0.2"/>
  <circle cx="200" cy="800" r="100" fill="url(#grad2)" opacity="0.1"/>
  <circle cx="700" cy="900" r="80" fill="url(#grad2)" opacity="0.2"/>
  
  <!-- Subtle Grid Pattern -->
  <path d="M0,100 H1000 M0,200 H1000 M0,300 H1000 M0,400 H1000 M0,500 H1000 M0,600 H1000 M0,700 H1000 M0,800 H1000 M0,900 H1000" stroke="#ffffff" stroke-width="1" opacity="0.05"/>
  <path d="M100,0 V1000 M200,0 V1000 M300,0 V1000 M400,0 V1000 M500,0 V1000 M600,0 V1000 M700,0 V1000 M800,0 V1000 M900,0 V1000" stroke="#ffffff" stroke-width="1" opacity="0.05"/>
</svg>